<svg width="221" height="48" viewBox="0 0 221 48" fill="none" xmlns="http://www.w3.org/2000/svg">
<g clip-path="url(#clip0_58_2540)">
<path d="M29.0594 2.85669C34.7093 -0.240768 41.8737 1.13641 46.6981 5.07153C49.0806 7.10398 50.7584 9.87399 51.7284 12.8303C51.7935 13.0114 51.8586 13.1926 51.9257 13.3792C52.3988 14.9064 52.4554 16.3867 52.4637 17.9817C52.4654 18.1885 52.4669 18.3956 52.4686 18.6086C52.422 23.6393 49.9382 27.8454 47.4227 32.0305C47.2692 32.2887 47.1152 32.5467 46.9618 32.8049C45.092 35.9291 43.019 38.9324 40.911 41.8997C40.7243 42.1626 40.5373 42.4262 40.3514 42.6897C39.738 43.5586 39.1148 44.4195 38.4784 45.2717C38.3953 45.3839 38.312 45.496 38.2264 45.6116C37.9907 45.9262 37.7499 46.236 37.5057 46.5442C37.4369 46.6367 37.3677 46.7291 37.2968 46.8245C37.0928 47.0734 37.0928 47.0736 36.6571 47.4231C36.0929 47.4774 36.0922 47.4779 35.4969 47.2581C35.0645 46.8675 34.7387 46.416 34.4003 45.9436C34.3005 45.8098 34.2003 45.6762 34.0975 45.5383C33.7878 45.1208 33.483 44.7 33.1786 44.2786C32.9964 44.0305 32.8143 43.7823 32.6317 43.5344C32.0894 42.7943 31.5561 42.0474 31.0253 41.2991C30.9296 41.1646 30.8338 41.0303 30.7352 40.8918C29.6821 39.4098 28.6453 37.9182 27.6512 36.3958C27.5344 36.2179 27.534 36.2177 27.4149 36.0364C26.8853 35.2157 26.997 35.1722 26.7489 34.887C26.5835 34.8415 26.6104 34.848 26.4696 34.8499C25.1756 34.8664 23.8808 34.8788 22.5868 34.887C21.9217 34.8913 21.2567 34.8971 20.5917 34.9065C19.9495 34.9155 19.3072 34.92 18.6649 34.9221C18.4201 34.9236 18.1753 34.9274 17.9305 34.9319C17.5871 34.9379 17.2437 34.9381 16.9003 34.9377C16.6077 34.9405 16.6072 34.9408 16.3085 34.9436C15.6283 34.8136 15.3829 34.5539 14.9598 34.0168C14.8667 33.4272 14.8667 33.4266 14.9598 32.8577C15.2691 32.4663 15.5102 32.2522 15.954 32.0305C16.2056 32.0153 16.4578 32.0097 16.7098 32.01C16.8692 32.0098 17.0291 32.0102 17.1932 32.01C17.3685 32.0106 17.5439 32.0104 17.7245 32.011C18.0008 32.011 18.0012 32.011 18.2831 32.011C18.8941 32.0111 19.5051 32.0126 20.1161 32.0139C20.5389 32.0142 20.9618 32.0147 21.3846 32.0149C22.3853 32.0155 23.386 32.0162 24.3866 32.0178C25.5257 32.0197 26.6654 32.0209 27.8046 32.0217C30.148 32.0235 32.4914 32.0268 34.8348 32.0305C34.7751 31.9508 34.7157 31.8705 34.6542 31.7883C34.5774 31.6839 34.4999 31.5796 34.4208 31.4719C34.344 31.3683 34.2675 31.2642 34.1884 31.1575C34.0072 30.8717 34.0363 30.9513 33.788 30.6204C33.6638 30.4549 33.7873 30.6206 33.6219 30.4553C33.2907 30.1243 32.9496 29.9641 32.5682 29.7229C30.9326 28.7374 29.3272 28.5294 27.4423 28.5305C27.2865 28.5299 27.1301 28.5301 26.9696 28.5295C26.6333 28.5283 26.2971 28.5272 25.9608 28.5266C25.4284 28.5254 24.8956 28.5228 24.3632 28.5198C22.8498 28.5111 21.3356 28.5028 19.8221 28.5002C18.8954 28.4986 17.9686 28.4935 17.0419 28.4866C16.6888 28.4845 16.3354 28.4843 15.9823 28.4846C15.4895 28.485 14.9966 28.4814 14.5038 28.4768C14.3578 28.4779 14.2118 28.4786 14.0614 28.4797C13.0724 28.4646 13.0722 28.4642 12.5555 28.0725C12.1404 27.4878 12.0723 27.1231 12.1444 26.4026C12.3876 26.044 12.3875 26.0438 12.8065 25.7405C13.3132 25.6786 13.7594 25.6566 14.2655 25.6653C14.4125 25.6652 14.5594 25.6654 14.7108 25.6653C15.1966 25.6657 15.6831 25.6708 16.1688 25.676C16.5057 25.6773 16.8427 25.6783 17.1796 25.679C18.066 25.6815 18.9523 25.6882 19.8387 25.6956C20.7435 25.7023 21.6488 25.7049 22.5536 25.7083C24.3286 25.7154 26.1038 25.7265 27.8788 25.7405C27.6988 25.4755 27.5174 25.2114 27.3358 24.9475C27.2351 24.8003 27.134 24.6529 27.0302 24.5012C25.9805 23.0995 24.3022 22.5164 22.6288 22.1731C21.9895 22.0868 21.3613 22.0766 20.7177 22.0784C20.5846 22.0781 20.4514 22.0777 20.3143 22.0774C20.0267 22.0767 19.7387 22.0765 19.451 22.0764C18.8394 22.0758 18.2277 22.072 17.6161 22.0686C16.4787 22.0623 15.3414 22.0575 14.204 22.0579C13.4114 22.058 12.6186 22.0536 11.826 22.0471C11.5244 22.0454 11.2224 22.0459 10.9208 22.0471C10.4993 22.0487 10.0776 22.045 9.65613 22.0403C9.53156 22.042 9.40654 22.0434 9.2782 22.0452C8.6517 22.0327 8.38757 21.9836 7.92664 21.5452C7.61611 21.0084 7.56877 20.7229 7.67273 20.1125C7.98176 19.7317 8.22834 19.5041 8.66589 19.2854C9.02785 19.2702 9.39053 19.2662 9.75281 19.2668C9.86431 19.2668 9.97582 19.2669 10.0907 19.2668C10.4598 19.267 10.829 19.2675 11.1981 19.2688C11.4539 19.2691 11.71 19.2696 11.9657 19.2698C12.6392 19.2704 13.3127 19.2719 13.9862 19.2737C14.6733 19.2754 15.3607 19.2768 16.0477 19.2776C17.3965 19.2794 18.7459 19.2819 20.0946 19.2854C20.0932 19.0961 20.0912 18.9062 20.0897 18.7112C20.0886 18.4584 20.0879 18.2052 20.0868 17.9524C20.0852 17.7665 20.0845 17.7663 20.0829 17.5764C20.068 12.9864 22.0225 8.90285 25.1874 5.66138C26.2525 4.60571 27.406 3.80246 28.7069 3.0647C28.8232 2.99602 28.9396 2.92745 29.0594 2.85669ZM39.7157 10.4231C37.7585 9.41995 34.8773 9.43069 32.9237 10.4348C32.7852 10.5177 32.6509 10.5986 32.5165 10.679C31.647 11.1559 30.947 11.7111 30.2596 12.427C28.4357 14.5531 27.888 16.703 28.0448 19.4514C28.3569 21.3994 29.2757 23.4646 30.8739 24.6819C30.9817 24.7606 31.0867 24.8369 31.1913 24.9133C32.8376 26.3017 34.791 26.8622 36.9462 26.7659C38.8089 26.6046 40.9992 25.7307 42.2675 24.2825C42.3871 24.1031 42.5038 23.9283 42.62 23.7542C43.2353 22.8553 43.8423 21.9727 44.1835 20.9309C44.2147 20.8217 44.2459 20.7157 44.2762 20.6096C44.7044 19.1986 44.7215 17.7716 44.5135 16.3167C43.8383 14.0892 42.5369 12.2054 40.5751 10.9387C40.4257 10.8503 40.2806 10.7648 40.1356 10.679C39.9931 10.5921 39.854 10.5074 39.7157 10.4231Z" fill="white"/>
<path d="M3.11768 19.1924C3.35051 19.1897 3.35051 19.1897 3.58803 19.1869C4.3013 19.1945 4.74612 19.2223 5.37368 19.581C5.70178 19.9675 5.79459 20.1115 5.77804 20.6097C5.77836 20.7735 5.77836 20.7735 5.77868 20.9407C5.64312 21.4191 5.40183 21.6181 5.02237 21.9338C4.39371 22.0677 3.75905 22.0336 3.11768 22.0269C2.94453 22.0308 2.77139 22.0348 2.59299 22.0389C1.3304 22.0364 1.3304 22.0364 0.768526 21.5452C0.498358 21.0012 0.438066 20.7123 0.550497 20.1131C1.25838 19.1145 1.98976 19.1637 3.11768 19.1924Z" fill="white"/>
<path d="M7.67246 25.6578C7.83771 25.6553 8.00296 25.6527 8.17322 25.6501C9.36883 25.6565 9.36883 25.6565 9.93428 26.0354C10.1667 26.4189 10.2466 26.6204 10.2396 27.0647C10.2414 27.1739 10.2431 27.2832 10.2448 27.3957C10.1047 27.9229 9.95324 28.0813 9.49434 28.3888C8.88576 28.4879 8.28777 28.4811 7.67246 28.4716C7.50721 28.4742 7.34196 28.4767 7.1717 28.4794C5.9761 28.473 5.9761 28.473 5.41064 28.094C5.17826 27.7106 5.09833 27.5091 5.10527 27.0647C5.10271 26.9008 5.10271 26.9008 5.1001 26.7337C5.43644 25.4682 6.59856 25.6412 7.67246 25.6578Z" fill="white"/>
</g>
<path d="M66.92 35V12.6H81.096V17.016H71.336V20.792H78.952V25.208H71.336V30.584H81.096V35H66.92ZM84.6875 35L84.6715 19H89.0875L89.1035 20.184C89.6368 19.672 90.2608 19.272 90.9755 18.984C91.7008 18.696 92.4635 18.552 93.2635 18.552C93.8502 18.552 94.4368 18.6373 95.0235 18.808L93.2795 23.272C92.8955 23.112 92.5062 23.032 92.1115 23.032C91.5568 23.032 91.0502 23.1653 90.5915 23.432C90.1328 23.6987 89.7702 24.0613 89.5035 24.52C89.2368 24.968 89.1035 25.4747 89.1035 26.04V35H84.6875ZM96.9078 35L96.8918 19H101.308L101.324 20.184C101.857 19.672 102.481 19.272 103.196 18.984C103.921 18.696 104.684 18.552 105.484 18.552C106.07 18.552 106.657 18.6373 107.244 18.808L105.5 23.272C105.116 23.112 104.726 23.032 104.332 23.032C103.777 23.032 103.27 23.1653 102.812 23.432C102.353 23.6987 101.99 24.0613 101.724 24.52C101.457 24.968 101.324 25.4747 101.324 26.04V35H96.9078ZM120.044 19H124.46V35H120.028L119.82 33.336C119.404 33.9547 118.87 34.456 118.22 34.84C117.569 35.224 116.806 35.416 115.932 35.416C114.737 35.416 113.622 35.192 112.588 34.744C111.553 34.296 110.641 33.6773 109.852 32.888C109.062 32.0987 108.444 31.1867 107.996 30.152C107.558 29.1067 107.34 27.9867 107.34 26.792C107.34 25.6507 107.548 24.584 107.964 23.592C108.38 22.6 108.966 21.7253 109.724 20.968C110.481 20.2107 111.35 19.6187 112.332 19.192C113.324 18.7653 114.39 18.552 115.532 18.552C116.513 18.552 117.393 18.76 118.172 19.176C118.961 19.592 119.649 20.12 120.236 20.76L120.044 19ZM115.82 31.176C116.545 31.176 117.201 30.9893 117.788 30.616C118.374 30.2427 118.838 29.7413 119.18 29.112C119.521 28.472 119.692 27.768 119.692 27C119.692 26.2213 119.521 25.5173 119.18 24.888C118.838 24.2587 118.374 23.7573 117.788 23.384C117.201 23.0107 116.545 22.824 115.82 22.824C115.084 22.824 114.417 23.0107 113.82 23.384C113.222 23.7573 112.748 24.264 112.396 24.904C112.044 25.5333 111.868 26.232 111.868 27C111.868 27.768 112.044 28.472 112.396 29.112C112.758 29.7413 113.238 30.2427 113.836 30.616C114.433 30.9893 115.094 31.176 115.82 31.176ZM142.603 24.824V35H138.187V26.04C138.187 25.4747 138.048 24.968 137.771 24.52C137.504 24.0613 137.141 23.6987 136.683 23.432C136.235 23.1653 135.733 23.032 135.179 23.032C134.624 23.032 134.117 23.1653 133.659 23.432C133.2 23.6987 132.837 24.0613 132.571 24.52C132.304 24.968 132.171 25.4747 132.171 26.04V35H127.755L127.739 19H132.155L132.171 20.184C132.704 19.672 133.328 19.272 134.043 18.984C134.768 18.696 135.531 18.552 136.331 18.552C137.493 18.552 138.544 18.8347 139.483 19.4C140.432 19.9653 141.189 20.7227 141.755 21.672C142.32 22.6107 142.603 23.6613 142.603 24.824ZM157.312 11H161.729V35H157.312V33.304C156.822 33.9227 156.214 34.4293 155.489 34.824C154.763 35.2187 153.937 35.416 153.009 35.416C151.846 35.416 150.758 35.1973 149.745 34.76C148.731 34.3227 147.835 33.72 147.056 32.952C146.288 32.1733 145.686 31.2773 145.248 30.264C144.811 29.2507 144.592 28.1627 144.592 27C144.592 25.8373 144.811 24.7493 145.248 23.736C145.686 22.7227 146.288 21.832 147.056 21.064C147.835 20.2853 148.731 19.6773 149.745 19.24C150.758 18.8027 151.846 18.584 153.009 18.584C153.937 18.584 154.763 18.7813 155.489 19.176C156.214 19.56 156.822 20.0667 157.312 20.696V11ZM153.073 31.176C153.798 31.176 154.454 30.9893 155.041 30.616C155.627 30.2427 156.091 29.7413 156.432 29.112C156.774 28.472 156.944 27.768 156.944 27C156.944 26.2213 156.774 25.5173 156.432 24.888C156.091 24.2587 155.627 23.7573 155.041 23.384C154.454 23.0107 153.798 22.824 153.073 22.824C152.337 22.824 151.67 23.0107 151.073 23.384C150.475 23.7573 150 24.264 149.648 24.904C149.297 25.5333 149.121 26.232 149.121 27C149.121 27.768 149.297 28.472 149.648 29.112C150.011 29.7413 150.491 30.2427 151.089 30.616C151.686 30.9893 152.347 31.176 153.073 31.176Z" fill="#F2D5F8"/>
<path d="M176.016 35.416C174.458 35.416 173.008 35.112 171.664 34.504C170.33 33.896 169.162 33.0587 168.16 31.992C167.168 30.9147 166.394 29.672 165.84 28.264C165.285 26.856 165.008 25.3573 165.008 23.768C165.008 22.0613 165.312 20.504 165.92 19.096C166.528 17.688 167.354 16.472 168.4 15.448C169.445 14.4133 170.629 13.6187 171.952 13.064C173.285 12.4987 174.672 12.216 176.112 12.216C177.69 12.216 179.237 12.584 180.752 13.32C182.266 14.056 183.621 15.224 184.816 16.824L180.88 18.936C180.197 18.1467 179.434 17.56 178.592 17.176C177.76 16.792 176.912 16.6 176.048 16.6C175.184 16.6 174.352 16.776 173.552 17.128C172.762 17.48 172.058 17.9813 171.44 18.632C170.821 19.2827 170.33 20.0507 169.968 20.936C169.605 21.8213 169.424 22.7973 169.424 23.864C169.424 24.856 169.594 25.784 169.936 26.648C170.288 27.512 170.768 28.2693 171.376 28.92C171.984 29.5707 172.688 30.0827 173.488 30.456C174.298 30.8187 175.162 31 176.08 31C176.645 31 177.2 30.92 177.744 30.76C178.298 30.5893 178.826 30.344 179.328 30.024C179.829 29.704 180.288 29.304 180.704 28.824C181.13 28.344 181.504 27.7893 181.824 27.16H178.352V23.32H187.024C187.088 24.9733 186.848 26.5307 186.304 27.992C185.76 29.4533 184.981 30.744 183.968 31.864C182.954 32.9733 181.77 33.8427 180.416 34.472C179.061 35.1013 177.594 35.416 176.016 35.416ZM196.752 35.416C195.28 35.416 193.936 35.0373 192.72 34.28C191.514 33.5227 190.549 32.5093 189.824 31.24C189.109 29.96 188.752 28.5467 188.752 27C188.752 25.8267 188.96 24.7333 189.376 23.72C189.792 22.696 190.362 21.8 191.088 21.032C191.824 20.2533 192.677 19.6453 193.648 19.208C194.618 18.7707 195.653 18.552 196.752 18.552C198.224 18.552 199.562 18.9307 200.768 19.688C201.984 20.4453 202.949 21.464 203.664 22.744C204.389 24.024 204.752 25.4427 204.752 27C204.752 28.1627 204.544 29.2507 204.128 30.264C203.712 31.2773 203.136 32.1733 202.4 32.952C201.674 33.72 200.826 34.3227 199.856 34.76C198.896 35.1973 197.861 35.416 196.752 35.416ZM196.752 31C197.434 31 198.048 30.8187 198.592 30.456C199.136 30.0827 199.562 29.592 199.872 28.984C200.181 28.376 200.336 27.7147 200.336 27C200.336 26.264 200.17 25.592 199.84 24.984C199.52 24.3653 199.088 23.8747 198.544 23.512C198 23.1493 197.402 22.968 196.752 22.968C196.08 22.968 195.472 23.1547 194.928 23.528C194.384 23.9013 193.952 24.392 193.632 25C193.322 25.608 193.168 26.2747 193.168 27C193.168 27.7573 193.328 28.44 193.648 29.048C193.978 29.6453 194.416 30.12 194.96 30.472C195.504 30.824 196.101 31 196.752 31Z" fill="white"/>
<defs>
<clipPath id="clip0_58_2540">
<rect width="53" height="48" fill="white"/>
</clipPath>
</defs>
</svg>
