<svg xmlns="http://www.w3.org/2000/svg" xmlns:xlink="http://www.w3.org/1999/xlink" width="75" zoomAndPan="magnify" viewBox="0 0 56.25 35.25" height="47" preserveAspectRatio="xMidYMid meet" version="1.0"><path fill="#040606" d="M 33.339844 31.089844 C 37.878906 28.992188 40.910156 24.996094 41.9375 20.5 C 38.738281 22.445312 35.0625 24.410156 31.0625 26.261719 C 27.066406 28.113281 23.1875 29.644531 19.628906 30.828125 C 23.765625 32.933594 28.800781 33.195312 33.339844 31.089844 " fill-opacity="1" fill-rule="nonzero"/><path fill="#040606" d="M 39.367188 7.378906 C 39.507812 7.558594 39.640625 7.738281 39.773438 7.925781 C 45.132812 6.609375 48.941406 6.601562 49.699219 8.214844 C 50.503906 9.925781 47.707031 13.070312 42.722656 16.535156 C 39.3125 18.90625 34.878906 21.429688 29.878906 23.746094 C 24.878906 26.058594 20.082031 27.8125 16.054688 28.882812 C 10.179688 30.445312 5.949219 30.554688 5.144531 28.84375 C 4.382812 27.230469 6.828125 24.34375 11.289062 21.113281 C 11.230469 20.894531 11.175781 20.675781 11.128906 20.453125 C 4.234375 24.984375 0.21875 29.199219 1.257812 31.402344 C 2.378906 33.78125 9.082031 33.195312 17.972656 30.34375 C 21.867188 29.09375 26.183594 27.410156 30.632812 25.347656 C 35.085938 23.285156 39.15625 21.085938 42.625 18.925781 C 50.535156 14 55.292969 9.28125 54.171875 6.90625 C 53.132812 4.699219 47.296875 5.046875 39.367188 7.378906 " fill-opacity="1" fill-rule="nonzero"/><path fill="#040606" d="M 40.140625 9.214844 C 40.011719 9 39.878906 8.789062 39.738281 8.582031 C 39.644531 8.4375 39.542969 8.296875 39.445312 8.15625 C 39.316406 7.976562 39.183594 7.800781 39.046875 7.628906 C 34.6875 2.054688 26.875 0 20.15625 3.109375 C 13.4375 6.222656 10.011719 13.476562 11.523438 20.371094 C 11.570312 20.585938 11.625 20.796875 11.679688 21.011719 C 11.726562 21.175781 11.769531 21.34375 11.820312 21.507812 C 11.890625 21.746094 11.96875 21.984375 12.050781 22.21875 C 12.222656 22.695312 12.414062 23.167969 12.632812 23.636719 C 12.910156 24.21875 13.222656 24.773438 13.558594 25.308594 C 17.152344 24.894531 22.574219 23.199219 28.359375 20.523438 C 34.144531 17.84375 38.9375 14.808594 41.5625 12.339844 C 41.367188 11.742188 41.136719 11.152344 40.863281 10.566406 C 40.640625 10.101562 40.402344 9.648438 40.140625 9.214844 " fill-opacity="1" fill-rule="nonzero"/><path fill="#040606" d="M 40.078125 8.359375 C 40.21875 8.570312 40.359375 8.789062 40.488281 9.007812 C 42.351562 8.878906 43.59375 9.164062 43.953125 9.925781 C 44.324219 10.714844 43.679688 11.90625 42.269531 13.3125 C 39.773438 15.796875 34.878906 18.945312 28.917969 21.703125 C 22.957031 24.464844 17.378906 26.164062 13.855469 26.464844 C 11.863281 26.636719 10.527344 26.359375 10.15625 25.570312 C 9.796875 24.816406 10.375 23.683594 11.667969 22.351562 C 11.582031 22.109375 11.503906 21.867188 11.429688 21.621094 C 8.277344 24.113281 6.632812 26.289062 7.234375 27.570312 C 7.875 28.925781 10.890625 29.011719 15.203125 28.058594 C 19.164062 27.183594 24.210938 25.433594 29.519531 22.976562 C 34.824219 20.523438 39.417969 17.804688 42.632812 15.359375 C 46.136719 12.691406 48.007812 10.339844 47.371094 8.988281 C 46.769531 7.707031 44.027344 7.5625 40.078125 8.359375 " fill-opacity="1" fill-rule="nonzero"/></svg>