<svg xmlns="http://www.w3.org/2000/svg" xmlns:xlink="http://www.w3.org/1999/xlink" width="75" zoomAndPan="magnify" viewBox="0 0 56.25 35.25" height="47" preserveAspectRatio="xMidYMid meet" version="1.0"><defs><clipPath id="67fc0360c1"><path d="M 1 5 L 55 5 L 55 33.78125 L 1 33.78125 Z M 1 5 " clip-rule="nonzero"/></clipPath></defs><path fill="#ffffff" d="M 33.285156 31.3125 C 37.816406 29.195312 40.839844 25.171875 41.867188 20.644531 C 38.675781 22.605469 35.003906 24.582031 31.011719 26.445312 C 27.019531 28.3125 23.148438 29.855469 19.597656 31.046875 C 23.726562 33.167969 28.753906 33.429688 33.285156 31.3125 " fill-opacity="1" fill-rule="nonzero"/><g clip-path="url(#67fc0360c1)"><path fill="#ffffff" d="M 39.300781 7.433594 C 39.441406 7.613281 39.578125 7.796875 39.710938 7.980469 C 45.058594 6.65625 48.859375 6.648438 49.617188 8.273438 C 50.421875 9.996094 47.628906 13.160156 42.652344 16.652344 C 39.25 19.042969 34.820312 21.582031 29.828125 23.914062 C 24.835938 26.246094 20.046875 28.011719 16.03125 29.085938 C 10.160156 30.660156 5.9375 30.773438 5.132812 29.050781 C 4.375 27.425781 6.820312 24.515625 11.269531 21.265625 C 11.210938 21.042969 11.160156 20.824219 11.109375 20.601562 C 4.226562 25.164062 0.21875 29.40625 1.257812 31.628906 C 2.375 34.023438 9.066406 33.429688 17.941406 30.558594 C 21.832031 29.300781 26.140625 27.605469 30.582031 25.527344 C 35.027344 23.453125 39.09375 21.238281 42.554688 19.0625 C 50.453125 14.101562 55.199219 9.347656 54.082031 6.953125 C 53.046875 4.734375 47.21875 5.082031 39.300781 7.433594 " fill-opacity="1" fill-rule="nonzero"/></g><path fill="#ffffff" d="M 40.074219 9.28125 C 39.945312 9.0625 39.8125 8.851562 39.671875 8.640625 C 39.578125 8.496094 39.480469 8.355469 39.378906 8.214844 C 39.25 8.035156 39.117188 7.855469 38.984375 7.679688 C 34.628906 2.070312 26.828125 0 20.121094 3.132812 C 13.414062 6.265625 9.996094 13.574219 11.507812 20.515625 C 11.554688 20.730469 11.605469 20.945312 11.660156 21.160156 C 11.707031 21.328125 11.75 21.496094 11.800781 21.660156 C 11.871094 21.902344 11.949219 22.140625 12.03125 22.378906 C 12.199219 22.859375 12.394531 23.335938 12.613281 23.804688 C 12.890625 24.390625 13.199219 24.953125 13.535156 25.488281 C 17.125 25.070312 22.539062 23.367188 28.3125 20.667969 C 34.089844 17.96875 38.871094 14.914062 41.492188 12.429688 C 41.296875 11.828125 41.070312 11.230469 40.792969 10.640625 C 40.574219 10.171875 40.332031 9.71875 40.074219 9.28125 " fill-opacity="1" fill-rule="nonzero"/><path fill="#ffffff" d="M 40.011719 8.417969 C 40.152344 8.632812 40.289062 8.851562 40.421875 9.074219 C 42.28125 8.945312 43.523438 9.230469 43.878906 9.996094 C 44.25 10.789062 43.605469 11.992188 42.199219 13.40625 C 39.707031 15.910156 34.820312 19.078125 28.871094 21.859375 C 22.917969 24.636719 17.351562 26.351562 13.832031 26.65625 C 11.84375 26.828125 10.507812 26.550781 10.136719 25.753906 C 9.78125 24.992188 10.359375 23.855469 11.648438 22.511719 C 11.5625 22.269531 11.484375 22.023438 11.410156 21.777344 C 8.265625 24.285156 6.621094 26.476562 7.222656 27.769531 C 7.859375 29.128906 10.875 29.21875 15.179688 28.257812 C 19.132812 27.378906 24.171875 25.617188 29.46875 23.140625 C 34.765625 20.667969 39.351562 17.933594 42.5625 15.46875 C 46.0625 12.78125 47.929688 10.414062 47.292969 9.050781 C 46.691406 7.761719 43.957031 7.617188 40.011719 8.417969 " fill-opacity="1" fill-rule="nonzero"/></svg>