<svg xmlns="http://www.w3.org/2000/svg" xmlns:xlink="http://www.w3.org/1999/xlink" width="349" zoomAndPan="magnify" viewBox="0 0 261.75 75.749997" height="101" preserveAspectRatio="xMidYMid meet" version="1.0"><defs><g/></defs><path fill="#ffffff" d="M 62.320312 58.71875 C 70.816406 54.75 76.488281 47.203125 78.410156 38.714844 C 72.425781 42.386719 65.542969 46.097656 58.058594 49.59375 C 50.574219 53.089844 43.3125 55.984375 36.652344 58.21875 C 44.398438 62.191406 53.824219 62.6875 62.320312 58.71875 " fill-opacity="1" fill-rule="nonzero"/><path fill="#ffffff" d="M 73.601562 13.9375 C 73.863281 14.273438 74.117188 14.617188 74.363281 14.964844 C 84.398438 12.480469 91.523438 12.46875 92.945312 15.511719 C 94.453125 18.742188 89.214844 24.679688 79.886719 31.226562 C 73.5 35.707031 65.199219 40.46875 55.839844 44.84375 C 46.476562 49.214844 37.496094 52.523438 29.960938 54.542969 C 18.957031 57.496094 11.039062 57.703125 9.53125 54.472656 C 8.109375 51.429688 12.691406 45.972656 21.035156 39.875 C 20.929688 39.460938 20.828125 39.046875 20.738281 38.628906 C 7.832031 47.183594 0.316406 55.144531 2.261719 59.308594 C 4.359375 63.800781 16.90625 62.6875 33.546875 57.300781 C 40.84375 54.941406 48.917969 51.765625 57.253906 47.871094 C 65.585938 43.976562 73.207031 39.824219 79.699219 35.746094 C 94.511719 26.4375 103.414062 17.53125 101.316406 13.039062 C 99.371094 8.875 88.445312 9.53125 73.601562 13.9375 " fill-opacity="1" fill-rule="nonzero"/><path fill="#ffffff" d="M 75.050781 17.402344 C 74.808594 16.996094 74.558594 16.597656 74.296875 16.207031 C 74.121094 15.933594 73.933594 15.667969 73.746094 15.40625 C 73.503906 15.066406 73.257812 14.730469 73.003906 14.402344 C 64.835938 3.878906 50.214844 0 37.636719 5.875 C 25.058594 11.75 18.648438 25.453125 21.480469 38.46875 C 21.566406 38.875 21.667969 39.277344 21.773438 39.683594 C 21.855469 39.996094 21.9375 40.308594 22.03125 40.621094 C 22.164062 41.070312 22.308594 41.515625 22.464844 41.964844 C 22.78125 42.863281 23.144531 43.753906 23.554688 44.636719 C 24.074219 45.738281 24.65625 46.789062 25.285156 47.792969 C 32.011719 47.011719 42.167969 43.816406 52.996094 38.757812 C 63.824219 33.699219 72.792969 27.964844 77.710938 23.304688 C 77.34375 22.179688 76.914062 21.058594 76.398438 19.957031 C 75.988281 19.074219 75.535156 18.222656 75.050781 17.402344 " fill-opacity="1" fill-rule="nonzero"/><path fill="#ffffff" d="M 74.933594 15.785156 C 75.199219 16.1875 75.457031 16.597656 75.703125 17.011719 C 79.1875 16.769531 81.515625 17.308594 82.183594 18.742188 C 82.882812 20.230469 81.671875 22.484375 79.03125 25.140625 C 74.363281 29.832031 65.199219 35.777344 54.039062 40.988281 C 42.878906 46.203125 32.4375 49.414062 25.84375 49.984375 C 22.113281 50.304688 19.609375 49.785156 18.914062 48.292969 C 18.246094 46.863281 19.328125 44.730469 21.75 42.214844 C 21.589844 41.757812 21.441406 41.296875 21.300781 40.835938 C 15.402344 45.542969 12.320312 49.648438 13.449219 52.070312 C 14.644531 54.625 20.296875 54.785156 28.367188 52.988281 C 35.78125 51.339844 45.230469 48.035156 55.164062 43.394531 C 65.09375 38.753906 73.695312 33.628906 79.714844 29.003906 C 86.277344 23.96875 89.78125 19.53125 88.585938 16.976562 C 87.457031 14.554688 82.328125 14.28125 74.933594 15.785156 " fill-opacity="1" fill-rule="nonzero"/><g fill="#ffffff" fill-opacity="1"><g transform="translate(94.311632, 48.713146)"><g><path d="M 10.515625 0.484375 C 7.878906 0.484375 5.863281 -0.238281 4.46875 -1.6875 C 3.082031 -3.132812 2.390625 -5.363281 2.390625 -8.375 L 2.390625 -25.046875 C 2.390625 -28.066406 3.085938 -30.296875 4.484375 -31.734375 C 5.890625 -33.179688 7.898438 -33.90625 10.515625 -33.90625 C 13.140625 -33.90625 15.144531 -33.179688 16.53125 -31.734375 C 17.925781 -30.296875 18.625 -28.066406 18.625 -25.046875 L 18.625 -8.375 C 18.625 -5.363281 17.925781 -3.132812 16.53125 -1.6875 C 15.144531 -0.238281 13.140625 0.484375 10.515625 0.484375 Z M 10.515625 -2.859375 C 11.953125 -2.859375 13.023438 -3.265625 13.734375 -4.078125 C 14.453125 -4.890625 14.8125 -6.320312 14.8125 -8.375 L 14.8125 -25.046875 C 14.8125 -27.109375 14.453125 -28.539062 13.734375 -29.34375 C 13.023438 -30.15625 11.953125 -30.5625 10.515625 -30.5625 C 9.066406 -30.5625 7.984375 -30.15625 7.265625 -29.34375 C 6.554688 -28.539062 6.203125 -27.109375 6.203125 -25.046875 L 6.203125 -8.375 C 6.203125 -6.320312 6.554688 -4.890625 7.265625 -4.078125 C 7.984375 -3.265625 9.066406 -2.859375 10.515625 -2.859375 Z M 10.515625 -2.859375 "/></g></g></g><g fill="#ffffff" fill-opacity="1"><g transform="translate(115.324609, 48.713146)"><g><path d="M 2.65625 -24.84375 L 6.203125 -24.84375 L 6.203125 -22.671875 L 5.953125 -20.0625 L 6.203125 -20.0625 C 6.441406 -20.957031 6.789062 -21.78125 7.25 -22.53125 C 7.65625 -23.164062 8.175781 -23.742188 8.8125 -24.265625 C 9.445312 -24.785156 10.242188 -25.046875 11.203125 -25.046875 C 11.378906 -25.046875 11.550781 -25.03125 11.71875 -25 C 11.894531 -24.976562 12.054688 -24.953125 12.203125 -24.921875 C 12.347656 -24.890625 12.492188 -24.863281 12.640625 -24.84375 L 12.640625 -21.28125 L 10.296875 -21.28125 C 9.742188 -21.28125 9.21875 -21.160156 8.71875 -20.921875 C 8.226562 -20.691406 7.796875 -20.375 7.421875 -19.96875 C 7.046875 -19.5625 6.75 -19.082031 6.53125 -18.53125 C 6.3125 -17.988281 6.203125 -17.382812 6.203125 -16.71875 L 6.203125 0 L 2.65625 0 Z M 2.65625 -24.84375 "/></g></g></g><g fill="#ffffff" fill-opacity="1"><g transform="translate(128.436011, 48.713146)"><g><path d="M 11.46875 0.484375 C 10.507812 0.484375 9.6875 0.253906 9 -0.203125 C 8.320312 -0.671875 7.78125 -1.195312 7.375 -1.78125 C 6.882812 -2.445312 6.492188 -3.210938 6.203125 -4.078125 L 5.953125 -4.078125 L 6.203125 -2.171875 L 6.203125 0 L 2.65625 0 L 2.65625 -34.875 L 6.203125 -34.875 L 6.203125 -22.671875 L 5.953125 -20.796875 L 6.203125 -20.796875 C 6.492188 -21.640625 6.882812 -22.394531 7.375 -23.0625 C 7.78125 -23.632812 8.320312 -24.148438 9 -24.609375 C 9.6875 -25.078125 10.507812 -25.3125 11.46875 -25.3125 C 12.300781 -25.3125 13.054688 -25.164062 13.734375 -24.875 C 14.421875 -24.59375 15.003906 -24.128906 15.484375 -23.484375 C 15.960938 -22.847656 16.332031 -22.007812 16.59375 -20.96875 C 16.851562 -19.925781 16.984375 -18.664062 16.984375 -17.1875 L 16.984375 -7.640625 C 16.984375 -6.140625 16.851562 -4.875 16.59375 -3.84375 C 16.332031 -2.8125 15.960938 -1.976562 15.484375 -1.34375 C 15.003906 -0.707031 14.421875 -0.242188 13.734375 0.046875 C 13.054688 0.335938 12.300781 0.484375 11.46875 0.484375 Z M 10.03125 -2.65625 C 11.101562 -2.65625 11.925781 -3.007812 12.5 -3.71875 C 13.082031 -4.425781 13.375 -5.734375 13.375 -7.640625 L 13.375 -17.1875 C 13.375 -19.101562 13.082031 -20.421875 12.5 -21.140625 C 11.925781 -21.867188 11.101562 -22.234375 10.03125 -22.234375 C 8.957031 -22.234375 8.050781 -21.8125 7.3125 -20.96875 C 6.570312 -20.132812 6.203125 -18.875 6.203125 -17.1875 L 6.203125 -7.640625 C 6.203125 -5.960938 6.570312 -4.710938 7.3125 -3.890625 C 8.050781 -3.066406 8.957031 -2.65625 10.03125 -2.65625 Z M 10.03125 -2.65625 "/></g></g></g><g fill="#ffffff" fill-opacity="1"><g transform="translate(147.799217, 48.713146)"><g><path d="M 2.65625 -24.84375 L 6.203125 -24.84375 L 6.203125 0 L 2.65625 0 Z M 2.65625 -33.4375 L 6.203125 -33.4375 L 6.203125 -28.1875 L 2.65625 -28.1875 Z M 2.65625 -33.4375 "/></g></g></g><g fill="#ffffff" fill-opacity="1"><g transform="translate(156.655923, 48.713146)"><g><path d="M 9.8125 0.484375 C 9.03125 0.484375 8.304688 0.335938 7.640625 0.046875 C 6.972656 -0.242188 6.382812 -0.664062 5.875 -1.21875 C 5.375 -1.769531 4.984375 -2.421875 4.703125 -3.171875 C 4.429688 -3.921875 4.296875 -4.773438 4.296875 -5.734375 L 4.296875 -21.75 L 0.953125 -21.75 L 0.953125 -24.84375 L 4.296875 -24.84375 L 4.296875 -30.5625 L 7.90625 -30.5625 L 7.90625 -24.84375 L 12.640625 -24.84375 L 12.640625 -21.75 L 7.90625 -21.75 L 7.90625 -5.734375 C 7.90625 -4.628906 8.09375 -3.875 8.46875 -3.46875 C 8.84375 -3.0625 9.453125 -2.859375 10.296875 -2.859375 C 10.867188 -2.859375 11.398438 -2.929688 11.890625 -3.078125 C 12.148438 -3.171875 12.398438 -3.257812 12.640625 -3.34375 L 12.640625 -0.21875 C 12.398438 -0.101562 12.140625 0.0078125 11.859375 0.125 C 11.597656 0.21875 11.289062 0.300781 10.9375 0.375 C 10.59375 0.445312 10.21875 0.484375 9.8125 0.484375 Z M 9.8125 0.484375 "/></g></g></g><g fill="#ffffff" fill-opacity="1"><g transform="translate(170.50539, 48.713146)"><g><path d="M 6.90625 0.484375 C 5.34375 0.484375 4.078125 -0.00390625 3.109375 -0.984375 C 2.140625 -1.972656 1.65625 -3.320312 1.65625 -5.03125 C 1.65625 -5.988281 1.785156 -6.84375 2.046875 -7.59375 C 2.304688 -8.351562 2.722656 -9.085938 3.296875 -9.796875 C 3.878906 -10.503906 4.640625 -11.21875 5.578125 -11.9375 C 6.515625 -12.664062 7.679688 -13.460938 9.078125 -14.328125 L 12.421875 -16.5 L 12.421875 -17.671875 C 12.421875 -19.234375 12.101562 -20.382812 11.46875 -21.125 C 10.832031 -21.863281 10.035156 -22.234375 9.078125 -22.234375 C 8.117188 -22.234375 7.320312 -21.863281 6.6875 -21.125 C 6.050781 -20.382812 5.734375 -19.234375 5.734375 -17.671875 L 5.734375 -15.765625 L 2.859375 -15.765625 C 2.773438 -15.960938 2.691406 -16.191406 2.609375 -16.453125 C 2.460938 -16.941406 2.390625 -17.59375 2.390625 -18.40625 C 2.390625 -19.425781 2.554688 -20.351562 2.890625 -21.1875 C 3.222656 -22.03125 3.691406 -22.753906 4.296875 -23.359375 C 4.898438 -23.960938 5.609375 -24.4375 6.421875 -24.78125 C 7.234375 -25.132812 8.117188 -25.3125 9.078125 -25.3125 C 11.242188 -25.3125 12.941406 -24.664062 14.171875 -23.375 C 15.398438 -22.09375 16.015625 -20.191406 16.015625 -17.671875 L 16.015625 -5.25 C 16.015625 -4.414062 16.054688 -3.710938 16.140625 -3.140625 C 16.234375 -2.578125 16.351562 -2.109375 16.5 -1.734375 C 16.613281 -1.296875 16.773438 -0.945312 16.984375 -0.6875 L 16.984375 0 L 13.375 0 C 13.164062 -0.289062 13.003906 -0.640625 12.890625 -1.046875 C 12.742188 -1.390625 12.628906 -1.8125 12.546875 -2.3125 C 12.460938 -2.820312 12.421875 -3.410156 12.421875 -4.078125 L 12.15625 -4.078125 C 11.894531 -3.210938 11.535156 -2.445312 11.078125 -1.78125 C 10.671875 -1.195312 10.125 -0.671875 9.4375 -0.203125 C 8.757812 0.253906 7.914062 0.484375 6.90625 0.484375 Z M 8.375 -2.65625 C 9.445312 -2.65625 10.390625 -3.09375 11.203125 -3.96875 C 12.015625 -4.851562 12.421875 -6.078125 12.421875 -7.640625 L 12.421875 -13.375 L 9.328125 -11.203125 C 8.003906 -10.304688 6.992188 -9.441406 6.296875 -8.609375 C 5.597656 -7.785156 5.25 -6.828125 5.25 -5.734375 C 5.25 -4.773438 5.523438 -4.019531 6.078125 -3.46875 C 6.628906 -2.925781 7.394531 -2.65625 8.375 -2.65625 Z M 8.375 -2.65625 "/></g></g></g><g fill="#ffffff" fill-opacity="1"><g transform="translate(188.913454, 48.713146)"><g><path d="M 10.515625 0.484375 C 7.878906 0.484375 5.863281 -0.238281 4.46875 -1.6875 C 3.082031 -3.132812 2.390625 -5.363281 2.390625 -8.375 L 2.390625 -25.046875 C 2.390625 -28.066406 3.085938 -30.296875 4.484375 -31.734375 C 5.890625 -33.179688 7.898438 -33.90625 10.515625 -33.90625 C 13.140625 -33.90625 15.144531 -33.179688 16.53125 -31.734375 C 17.925781 -30.296875 18.625 -28.066406 18.625 -25.046875 L 18.625 -8.375 C 18.625 -5.363281 17.925781 -3.132812 16.53125 -1.6875 C 15.144531 -0.238281 13.140625 0.484375 10.515625 0.484375 Z M 10.515625 -2.859375 C 11.953125 -2.859375 13.023438 -3.265625 13.734375 -4.078125 C 14.453125 -4.890625 14.8125 -6.320312 14.8125 -8.375 L 14.8125 -25.046875 C 14.8125 -27.109375 14.453125 -28.539062 13.734375 -29.34375 C 13.023438 -30.15625 11.953125 -30.5625 10.515625 -30.5625 C 9.066406 -30.5625 7.984375 -30.15625 7.265625 -29.34375 C 6.554688 -28.539062 6.203125 -27.109375 6.203125 -25.046875 L 6.203125 -8.375 C 6.203125 -6.320312 6.554688 -4.890625 7.265625 -4.078125 C 7.984375 -3.265625 9.066406 -2.859375 10.515625 -2.859375 Z M 10.515625 -2.859375 "/></g></g></g><g fill="#ffffff" fill-opacity="1"><g transform="translate(209.926432, 48.713146)"><g><path d="M 2.65625 -24.84375 L 6.203125 -24.84375 L 6.203125 -22.671875 L 5.953125 -20.796875 L 6.203125 -20.796875 C 6.492188 -21.640625 6.882812 -22.394531 7.375 -23.0625 C 7.78125 -23.632812 8.320312 -24.148438 9 -24.609375 C 9.6875 -25.078125 10.507812 -25.3125 11.46875 -25.3125 C 13.144531 -25.3125 14.484375 -24.742188 15.484375 -23.609375 C 16.484375 -22.484375 16.984375 -20.664062 16.984375 -18.15625 L 16.984375 0 L 13.375 0 L 13.375 -17.1875 C 13.375 -19.101562 13.09375 -20.421875 12.53125 -21.140625 C 11.96875 -21.867188 11.222656 -22.234375 10.296875 -22.234375 C 9.191406 -22.234375 8.234375 -21.785156 7.421875 -20.890625 C 6.609375 -19.992188 6.203125 -18.757812 6.203125 -17.1875 L 6.203125 0 L 2.65625 0 Z M 2.65625 -24.84375 "/></g></g></g><g fill="#ffffff" fill-opacity="1"><g transform="translate(229.506714, 48.713146)"><g><path d="M 9.8125 0.484375 C 7.53125 0.484375 5.722656 -0.207031 4.390625 -1.59375 C 3.054688 -2.988281 2.390625 -5.003906 2.390625 -7.640625 L 2.390625 -17.1875 C 2.390625 -19.820312 3.054688 -21.832031 4.390625 -23.21875 C 5.722656 -24.613281 7.53125 -25.3125 9.8125 -25.3125 C 12.070312 -25.3125 13.863281 -24.613281 15.1875 -23.21875 C 16.519531 -21.832031 17.1875 -19.820312 17.1875 -17.1875 L 17.1875 -11.46875 L 5.953125 -11.46875 L 5.953125 -7.640625 C 5.953125 -5.847656 6.289062 -4.566406 6.96875 -3.796875 C 7.644531 -3.035156 8.59375 -2.65625 9.8125 -2.65625 C 11 -2.65625 11.925781 -3.035156 12.59375 -3.796875 C 13.257812 -4.566406 13.59375 -5.847656 13.59375 -7.640625 L 13.59375 -8.59375 L 16.5 -8.59375 C 16.5625 -8.425781 16.632812 -8.210938 16.71875 -7.953125 C 16.769531 -7.710938 16.828125 -7.445312 16.890625 -7.15625 C 16.953125 -6.875 16.984375 -6.554688 16.984375 -6.203125 C 16.984375 -5.253906 16.804688 -4.375 16.453125 -3.5625 C 16.109375 -2.75 15.617188 -2.035156 14.984375 -1.421875 C 14.347656 -0.816406 13.59375 -0.347656 12.71875 -0.015625 C 11.851562 0.316406 10.882812 0.484375 9.8125 0.484375 Z M 13.59375 -14.546875 L 13.59375 -17.1875 C 13.59375 -19.019531 13.257812 -20.316406 12.59375 -21.078125 C 11.925781 -21.847656 11 -22.234375 9.8125 -22.234375 C 8.59375 -22.234375 7.644531 -21.847656 6.96875 -21.078125 C 6.289062 -20.316406 5.953125 -19.019531 5.953125 -17.1875 L 5.953125 -14.546875 Z M 13.59375 -14.546875 "/></g></g></g></svg>